<?xml version="1.0" encoding="UTF-8" standalone="no"?>
<svg width="135px" height="73px" viewBox="0 0 135 73" version="1.1" xmlns="http://www.w3.org/2000/svg" xmlns:xlink="http://www.w3.org/1999/xlink" xmlns:sketch="http://www.bohemiancoding.com/sketch/ns">
    <!-- Generator: Sketch 3.1 (8751) - http://www.bohemiancoding.com/sketch -->
    <title>light-type</title>
    <desc>Created with Sketch.</desc>
    <defs></defs>
    <g id="Page-1" stroke="none" stroke-width="1" fill="none" fill-rule="evenodd" sketch:type="MSPage">
        <g id="light-type" sketch:type="MSArtboardGroup">
            <g id="Line-2-+-MASHUP-2-+-GARAGE-2" sketch:type="MSLayerGroup" transform="translate(1.000000, 1.000000)">
                <path d="M3.64795918,37 L129.352041,37" id="Line-2" stroke="#DF3131" stroke-width="3" stroke-linecap="round" sketch:type="MSShapeGroup"></path>
                <path d="M6.86363636,13.4545455 L3.36363636,3.95454545 L3.36363636,18 L0,18 L0,-0.181818182 L5.09090909,-0.181818182 L8.81818182,10.4090909 L12.5454545,-0.181818182 L17.5,-0.181818182 L17.5,18 L14.1590909,18 L14.1590909,3.90909091 L10.6363636,13.4545455 L6.86363636,13.4545455 Z M34.8181818,10.5681818 L32.4772727,2.61363636 L30.1136364,10.5681818 L34.8181818,10.5681818 Z M37,18 L35.7045455,13.5681818 L29.2272727,13.5681818 L27.9090909,18 L24.2727273,18 L30.1818182,-0.181818182 L35.0909091,-0.181818182 L40.9545455,18 L37,18 Z M55.2727273,18.2045455 C53.7727198,18.2045455 52.3484916,17.9734872 51,17.5113636 C49.6515084,17.0492401 48.4848534,16.3333382 47.5,15.3636364 L48.8409091,12.75 C49.8106109,13.5681859 50.8522672,14.1818161 51.9659091,14.5909091 C53.079551,15.000002 54.3484777,15.2045455 55.7727273,15.2045455 C56.9090966,15.2045455 57.7727243,15.000002 58.3636364,14.5909091 C58.9545484,14.1818161 59.25,13.590913 59.25,12.8181818 C59.25,12.1212086 58.9053065,11.6174258 58.2159091,11.3068182 C57.5265117,10.9962106 56.068193,10.651517 53.8409091,10.2727273 C51.7045348,9.93939227 50.1969741,9.39773102 49.3181818,8.64772727 C48.4393895,7.89772352 48,6.77273477 48,5.27272727 C48,3.65150705 48.6060545,2.30682352 49.8181818,1.23863636 C51.0303091,0.170449205 52.8030186,-0.363636364 55.1363636,-0.363636364 C56.5454616,-0.363636364 57.8901451,-0.132578068 59.1704545,0.329545455 C60.450764,0.791668977 61.4621175,1.43181409 62.2045455,2.25 L61.0227273,4.75 C60.1136318,4.06817841 59.1628838,3.5492442 58.1704545,3.19318182 C57.1780253,2.83711943 56.1439448,2.65909091 55.0681818,2.65909091 C54.0681768,2.65909091 53.2803059,2.83711943 52.7045455,3.19318182 C52.128785,3.5492442 51.8409091,4.09848114 51.8409091,4.84090909 C51.8409091,5.53788227 52.1931783,6.03787727 52.8977273,6.34090909 C53.6022763,6.64394091 55.0908977,6.99242227 57.3636364,7.38636364 C59.4697075,7.75000182 60.9545411,8.31817795 61.8181818,9.09090909 C62.6818225,9.86364023 63.1136364,10.9999925 63.1136364,12.5 C63.1136364,14.3030393 62.4204615,15.7045405 61.0340909,16.7045455 C59.6477203,17.7045505 57.727285,18.2045455 55.2727273,18.2045455 L55.2727273,18.2045455 Z M71.25,18 L71.25,-0.181818182 L75.1136364,-0.181818182 L75.1136364,6.45454545 L82.6136364,6.45454545 L82.6136364,-0.181818182 L86.4772727,-0.181818182 L86.4772727,18 L82.6136364,18 L82.6136364,9.45454545 L75.1136364,9.45454545 L75.1136364,18 L71.25,18 Z M102.386364,18.2272727 C99.6893805,18.2272727 97.7462181,17.6704601 96.5568182,16.5568182 C95.3674183,15.4431762 94.7727273,13.7197086 94.7727273,11.3863636 L94.7727273,-0.181818182 L98.6363636,-0.181818182 L98.6363636,11.0681818 C98.6363636,12.5227345 98.8939368,13.5530273 99.4090909,14.1590909 C99.924245,14.7651545 100.916659,15.0681818 102.386364,15.0681818 C103.856068,15.0681818 104.848482,14.7651545 105.363636,14.1590909 C105.87879,13.5530273 106.136364,12.5227345 106.136364,11.0681818 L106.136364,-0.181818182 L110,-0.181818182 L110,11.3863636 C110,13.7197086 109.405309,15.4431762 108.215909,16.5568182 C107.026509,17.6704601 105.083347,18.2272727 102.386364,18.2272727 L102.386364,18.2272727 Z M118.295455,18 L118.295455,-0.181818182 L125.659091,-0.181818182 C127.643949,-0.181818182 129.185601,0.265147045 130.284091,1.15909091 C131.382581,2.05303477 131.931818,3.31059795 131.931818,4.93181818 L131.931818,7.34090909 C131.931818,8.91667455 131.382581,10.1325715 130.284091,10.9886364 C129.185601,11.8447012 127.643949,12.2727273 125.659091,12.2727273 L122.159091,12.2727273 L122.159091,18 L118.295455,18 Z M122.159091,9.29545455 L125.136364,9.29545455 C126.181823,9.29545455 126.931816,9.11363818 127.386364,8.75 C127.840911,8.38636182 128.068182,7.77273159 128.068182,6.90909091 L128.068182,5.27272727 C128.068182,4.393935 127.840911,3.76515341 127.386364,3.38636364 C126.931816,3.00757386 126.181823,2.81818182 125.136364,2.81818182 L122.159091,2.81818182 L122.159091,9.29545455 Z" id="MASHUP-2" fill="#000000" sketch:type="MSShapeGroup"></path>
                <path d="M8.70454545,71.2272727 C6.128775,71.2272727 4.18940045,70.6628844 2.88636364,69.5340909 C1.58332682,68.4052974 0.931818182,66.8484948 0.931818182,64.8636364 L0.931818182,59.0454545 C0.931818182,57.0454445 1.57575114,55.4697027 2.86363636,54.3181818 C4.15152159,53.1666609 6.07574477,52.5909091 8.63636364,52.5909091 C11.1363761,52.5909091 12.9886303,53.0340865 14.1931818,53.9204545 C15.3977333,54.8068226 16.0530298,56.2651414 16.1590909,58.2954545 L12.2954545,58.5227273 C12.1893934,57.4469643 11.890154,56.6893961 11.3977273,56.25 C10.9053006,55.8106039 9.99243091,55.5909091 8.65909091,55.5909091 C7.15908341,55.5909091 6.1401542,55.8901485 5.60227273,56.4886364 C5.06439125,57.0871242 4.79545455,58.045448 4.79545455,59.3636364 L4.79545455,64.5454545 C4.79545455,65.8333398 5.09090614,66.7689365 5.68181818,67.3522727 C6.27273023,67.935609 7.37877977,68.2272727 9,68.2272727 C10.3787948,68.2272727 11.2992401,67.935609 11.7613636,67.3522727 C12.2234872,66.7689365 12.4469698,65.803037 12.4318182,64.4545455 L8.54545455,64.4545455 L8.54545455,61.4545455 L16.2954545,61.4545455 L16.2954545,64.7954545 C16.2954545,66.780313 15.666673,68.3484791 14.4090909,69.5 C13.1515089,70.6515209 11.2500127,71.2272727 8.70454545,71.2272727 L8.70454545,71.2272727 Z M33.4772727,63.5681818 L31.1363636,55.6136364 L28.7727273,63.5681818 L33.4772727,63.5681818 Z M35.6590909,71 L34.3636364,66.5681818 L27.8863636,66.5681818 L26.5681818,71 L22.9318182,71 L28.8409091,52.8181818 L33.75,52.8181818 L39.6136364,71 L35.6590909,71 Z M50.25,61.4545455 L54.6590909,61.4545455 C55.6893991,61.4545455 56.4090889,61.2916683 56.8181818,60.9659091 C57.2272748,60.6401499 57.4318182,60.090913 57.4318182,59.3181818 L57.4318182,57.9090909 C57.4318182,57.1363598 57.2272748,56.5946985 56.8181818,56.2840909 C56.4090889,55.9734833 55.6893991,55.8181818 54.6590909,55.8181818 L50.25,55.8181818 L50.25,61.4545455 Z M50.25,71 L46.3863636,71 L46.3863636,52.8181818 L55.4772727,52.8181818 C57.3409184,52.8181818 58.7765101,53.2499957 59.7840909,54.1136364 C60.7916717,54.977277 61.2954545,56.1969618 61.2954545,57.7727273 L61.2954545,59.3409091 C61.2954545,60.6590975 60.9545489,61.7348443 60.2727273,62.5681818 C59.5909057,63.4015193 58.606067,63.9545441 57.3181818,64.2272727 L61.8181818,71 L57.4090909,71 L53.0454545,64.4318182 L50.25,64.4318182 L50.25,71 Z M78.9318182,63.5681818 L76.5909091,55.6136364 L74.2272727,63.5681818 L78.9318182,63.5681818 Z M81.1136364,71 L79.8181818,66.5681818 L73.3409091,66.5681818 L72.0227273,71 L68.3863636,71 L74.2954545,52.8181818 L79.2045455,52.8181818 L85.0681818,71 L81.1136364,71 Z M99.6136364,71.2272727 C97.0378659,71.2272727 95.0984914,70.6628844 93.7954545,69.5340909 C92.4924177,68.4052974 91.8409091,66.8484948 91.8409091,64.8636364 L91.8409091,59.0454545 C91.8409091,57.0454445 92.484842,55.4697027 93.7727273,54.3181818 C95.0606125,53.1666609 96.9848357,52.5909091 99.5454545,52.5909091 C102.045467,52.5909091 103.897721,53.0340865 105.102273,53.9204545 C106.306824,54.8068226 106.962121,56.2651414 107.068182,58.2954545 L103.204545,58.5227273 C103.098484,57.4469643 102.799245,56.6893961 102.306818,56.25 C101.814391,55.8106039 100.901522,55.5909091 99.5681818,55.5909091 C98.0681743,55.5909091 97.0492451,55.8901485 96.5113636,56.4886364 C95.9734822,57.0871242 95.7045455,58.045448 95.7045455,59.3636364 L95.7045455,64.5454545 C95.7045455,65.8333398 95.999997,66.7689365 96.5909091,67.3522727 C97.1818211,67.935609 98.2878707,68.2272727 99.9090909,68.2272727 C101.287886,68.2272727 102.208331,67.935609 102.670455,67.3522727 C103.132578,66.7689365 103.356061,65.803037 103.340909,64.4545455 L99.4545455,64.4545455 L99.4545455,61.4545455 L107.204545,61.4545455 L107.204545,64.7954545 C107.204545,66.780313 106.575764,68.3484791 105.318182,69.5 C104.0606,70.6515209 102.159104,71.2272727 99.6136364,71.2272727 L99.6136364,71.2272727 Z M115.363636,71 L115.363636,52.8181818 L128.454545,52.8181818 L128.454545,55.8181818 L119.227273,55.8181818 L119.227273,59.7727273 L127.318182,59.7727273 L127.318182,62.7727273 L119.227273,62.7727273 L119.227273,68 L128.454545,68 L128.454545,71 L115.363636,71 Z" id="GARAGE-2" fill="#000000" sketch:type="MSShapeGroup"></path>
            </g>
        </g>
    </g>
</svg>