<?xml version="1.0" encoding="UTF-8" standalone="no"?>
<svg width="319px" height="78px" viewBox="0 0 319 78" version="1.1" xmlns="http://www.w3.org/2000/svg" xmlns:xlink="http://www.w3.org/1999/xlink" xmlns:sketch="http://www.bohemiancoding.com/sketch/ns">
    <!-- Generator: Sketch 3.2 (9964) - http://www.bohemiancoding.com/sketch -->
    <title>regular</title>
    <desc>Created with Sketch.</desc>
    <defs></defs>
    <g id="Page-1" stroke="none" stroke-width="1" fill="none" fill-rule="evenodd" sketch:type="MSPage">
        <g id="regular" sketch:type="MSArtboardGroup">
            <g id="Path-3-+-TICKETBASE" sketch:type="MSLayerGroup" transform="translate(2.000000, 2.000000)">
                <path d="M55.0116795,16.8228446 L55.0116795,0.566986732 L44.0570975,0.566986732 L33.1025155,10.5669867 L22.1479336,10.5669867 L11.1933516,0.566986732 L0.238769615,0.566986732 L0.238769615,73.4330133 L11.1933516,73.4330133 L22.1479336,63.4330133 L33.1025155,63.4330133 L44.0570975,73.4330133 L55.0116795,73.4330133 L55.0116795,56.3154536" id="Path-3" stroke="#1CA861" stroke-width="6" stroke-linejoin="round" opacity="0.703533116" sketch:type="MSShapeGroup"></path>
                <path d="M39.0832304,30.4628446 L32.1472304,30.4628446 L32.1472304,48.8228446 L25.5172304,48.8228446 L25.5172304,30.4628446 L18.5472304,30.4628446 L18.5472304,24.6828446 L39.0832304,24.6828446 L39.0832304,30.4628446 Z M51.4972304,48.8228446 L51.4972304,24.6828446 L58.1272304,24.6828446 L58.1272304,48.8228446 L51.4972304,48.8228446 Z M70.9492304,36.5488446 C70.9492304,35.0755039 71.2098944,33.6248518 71.7312304,32.1968446 C72.2525663,30.7688375 73.0175587,29.4881836 74.0262304,28.3548446 C75.0349021,27.2215056 76.2588899,26.3035148 77.6982304,25.6008446 C79.1375709,24.8981745 80.7752212,24.5468446 82.6112304,24.5468446 C84.7645745,24.5468446 86.645889,25.0285065 88.2552304,25.9918446 C89.8645718,26.9551828 91.0545599,28.23017 91.8252304,29.8168446 L86.7592304,33.4208446 C86.5552294,32.8315084 86.2888987,32.3441799 85.9602304,31.9588446 C85.6315621,31.5735094 85.2745656,31.2675124 84.8892304,31.0408446 C84.5038951,30.8141768 84.0958992,30.6555118 83.6652304,30.5648446 C83.2345616,30.4741775 82.8378989,30.4288446 82.4752304,30.4288446 C81.6365595,30.4288446 80.9169001,30.6158428 80.3162304,30.9898446 C79.7155607,31.3638465 79.216899,31.851175 78.8202304,32.4518446 C78.4235617,33.0525143 78.1345646,33.7325075 77.9532304,34.4918446 C77.7718961,35.2511818 77.6812304,36.0048409 77.6812304,36.7528446 C77.6812304,37.5915155 77.788896,38.3961741 78.0042304,39.1668446 C78.2195648,39.9375152 78.536895,40.6175084 78.9562304,41.2068446 C79.3755658,41.7961809 79.8855607,42.2665096 80.4862304,42.6178446 C81.0869001,42.9691797 81.7725599,43.1448446 82.5432304,43.1448446 C82.9285656,43.1448446 83.3252283,43.0938452 83.7332304,42.9918446 C84.1412324,42.8898441 84.5322285,42.7198458 84.9062304,42.4818446 C85.2802323,42.2438435 85.6202289,41.9378465 85.9262304,41.5638446 C86.2322319,41.1898428 86.4758961,40.7308474 86.6572304,40.1868446 L92.0632304,43.4168446 C91.7232287,44.3008491 91.2075672,45.0941745 90.5162304,45.7968446 C89.8248936,46.4995148 89.0372348,47.0888423 88.1532304,47.5648446 C87.269226,48.040847 86.3285687,48.4035101 85.3312304,48.6528446 C84.3338921,48.9021792 83.3592351,49.0268446 82.4072304,49.0268446 C80.7298887,49.0268446 79.1885707,48.6698482 77.7832304,47.9558446 C76.37789,47.2418411 75.1709021,46.2955172 74.1622304,45.1168446 C73.1535587,43.9381721 72.3658999,42.6008521 71.7992304,41.1048446 C71.2325609,39.6088372 70.9492304,38.0901857 70.9492304,36.5488446 L70.9492304,36.5488446 Z M104.54523,48.8228446 L104.54523,24.6828446 L111.17523,24.6828446 L111.17523,34.5428446 L119.19923,24.6828446 L125.99923,24.6828446 L117.22723,35.4948446 L126.61123,48.8228446 L119.67523,48.8228446 L113.31723,39.2008446 L111.17523,41.6488446 L111.17523,48.8228446 L104.54523,48.8228446 Z M155.17523,43.0428446 L155.17523,48.8228446 L137.97123,48.8228446 L137.97123,24.6828446 L154.86923,24.6828446 L154.86923,30.4628446 L144.60123,30.4628446 L144.60123,33.8628446 L153.37323,33.8628446 L153.37323,39.2348446 L144.60123,39.2348446 L144.60123,43.0428446 L155.17523,43.0428446 Z M187.07123,30.4628446 L180.13523,30.4628446 L180.13523,48.8228446 L173.50523,48.8228446 L173.50523,30.4628446 L166.53523,30.4628446 L166.53523,24.6828446 L187.07123,24.6828446 L187.07123,30.4628446 Z M220.02123,42.6348446 C220.02123,43.7228501 219.794566,44.6578407 219.34123,45.4398446 C218.887895,46.2218486 218.264568,46.8621755 217.47123,47.3608446 C216.677893,47.8595138 215.754236,48.2278435 214.70023,48.4658446 C213.646225,48.7038458 212.529903,48.8228446 211.35123,48.8228446 L199.48523,48.8228446 L199.48523,24.6828446 L213.49323,24.6828446 C214.331901,24.6828446 215.091227,24.8641762 215.77123,25.2268446 C216.451234,25.5895131 217.029228,26.0598418 217.50523,26.6378446 C217.981233,27.2158475 218.349562,27.8731743 218.61023,28.6098446 C218.870898,29.346515 219.00123,30.1001741 219.00123,30.8708446 C219.00123,32.0041836 218.712233,33.0865062 218.13423,34.1178446 C217.556227,35.1491831 216.689236,35.9255087 215.53323,36.4468446 C216.915904,36.8548467 218.00956,37.5631729 218.81423,38.5718446 C219.618901,39.5805164 220.02123,40.9348361 220.02123,42.6348446 L220.02123,42.6348446 Z M213.28923,41.2748446 C213.28923,40.6855084 213.130565,40.1925133 212.81323,39.7958446 C212.495895,39.399176 212.0879,39.2008446 211.58923,39.2008446 L206.11523,39.2008446 L206.11523,43.2468446 L211.35123,43.2468446 C211.895233,43.2468446 212.354229,43.0768463 212.72823,42.7368446 C213.102232,42.3968429 213.28923,41.9095145 213.28923,41.2748446 L213.28923,41.2748446 Z M206.11523,30.3268446 L206.11523,34.0328446 L210.63723,34.0328446 C211.090566,34.0328446 211.504229,33.9081792 211.87823,33.6588446 C212.252232,33.4095101 212.43923,32.9108484 212.43923,32.1628446 C212.43923,31.505508 212.280565,31.0351794 211.96323,30.7518446 C211.645895,30.4685099 211.271899,30.3268446 210.84123,30.3268446 L206.11523,30.3268446 Z M230.12323,48.8228446 L239.13323,24.6828446 L244.50523,24.6828446 L253.48123,48.8228446 L246.47723,48.8228446 L245.01523,44.0968446 L238.58923,44.0968446 L237.16123,48.8228446 L230.12323,48.8228446 Z M241.81923,31.5848446 L239.57523,39.6768446 L243.96123,39.6768446 L241.81923,31.5848446 Z M279.73323,32.5708446 C279.053227,32.1628426 278.350567,31.8001796 277.62523,31.4828446 C277.013227,31.2108433 276.327568,30.9558458 275.56823,30.7178446 C274.808893,30.4798435 274.066567,30.3608446 273.34123,30.3608446 C272.751894,30.3608446 272.281565,30.4515104 271.93023,30.6328446 C271.578895,30.8141789 271.40323,31.1201758 271.40323,31.5508446 C271.40323,31.8681796 271.505229,32.1288436 271.70923,32.3328446 C271.913231,32.5368457 272.207895,32.7238438 272.59323,32.8938446 C272.978566,33.0638455 273.448894,33.2281772 274.00423,33.3868446 C274.559566,33.5455121 275.18856,33.7381768 275.89123,33.9648446 C277.001903,34.3048463 278.004893,34.6788426 278.90023,35.0868446 C279.795568,35.4948467 280.560561,35.9765085 281.19523,36.5318446 C281.8299,37.0871808 282.317229,37.7615073 282.65723,38.5548446 C282.997232,39.3481819 283.16723,40.3115056 283.16723,41.4448446 C283.16723,42.8955186 282.9009,44.1138397 282.36823,45.0998446 C281.835561,46.0858496 281.132901,46.8735084 280.26023,47.4628446 C279.387559,48.0521809 278.401569,48.4771767 277.30223,48.7378446 C276.202892,48.9985126 275.097903,49.1288446 273.98723,49.1288446 C273.103226,49.1288446 272.196568,49.0608453 271.26723,48.9248446 C270.337892,48.788844 269.414235,48.5961792 268.49623,48.3468446 C267.578226,48.0975101 266.694235,47.8028463 265.84423,47.4628446 C264.994226,47.1228429 264.206567,46.7375135 263.48123,46.3068446 L266.33723,40.4928446 C267.130568,40.9915138 267.957893,41.4335094 268.81923,41.8188446 C269.544567,42.1588463 270.366226,42.4648433 271.28423,42.7368446 C272.202235,43.008846 273.137226,43.1448446 274.08923,43.1448446 C274.814567,43.1448446 275.318896,43.0485123 275.60223,42.8558446 C275.885565,42.663177 276.02723,42.4081796 276.02723,42.0908446 C276.02723,41.7508429 275.885565,41.4618458 275.60223,41.2238446 C275.318896,40.9858435 274.9279,40.7761789 274.42923,40.5948446 C273.930561,40.4135104 273.358234,40.2321789 272.71223,40.0508446 C272.066227,39.8695104 271.380567,39.6541792 270.65523,39.4048446 C269.589892,39.0421762 268.671901,38.6511801 267.90123,38.2318446 C267.13056,37.8125092 266.4959,37.336514 265.99723,36.8038446 C265.498561,36.2711753 265.130232,35.664848 264.89223,34.9848446 C264.654229,34.3048412 264.53523,33.5228491 264.53523,32.6388446 C264.53523,31.3015046 264.778895,30.1228497 265.26623,29.1028446 C265.753566,28.0828395 266.41656,27.232848 267.25523,26.5528446 C268.093901,25.8728412 269.051558,25.3571797 270.12823,25.0058446 C271.204902,24.6545096 272.343891,24.4788446 273.54523,24.4788446 C274.429235,24.4788446 275.29056,24.5638438 276.12923,24.7338446 C276.967901,24.9038455 277.778226,25.1191767 278.56023,25.3798446 C279.342234,25.6405126 280.073227,25.9238431 280.75323,26.2298446 C281.433234,26.5358462 282.045228,26.8248433 282.58923,27.0968446 L279.73323,32.5708446 Z M313.29523,43.0428446 L313.29523,48.8228446 L296.09123,48.8228446 L296.09123,24.6828446 L312.98923,24.6828446 L312.98923,30.4628446 L302.72123,30.4628446 L302.72123,33.8628446 L311.49323,33.8628446 L311.49323,39.2348446 L302.72123,39.2348446 L302.72123,43.0428446 L313.29523,43.0428446 Z" id="TICKETBASE" fill="#0C435E" sketch:type="MSShapeGroup"></path>
            </g>
        </g>
    </g>
</svg>